<svg width="169" height="38" viewBox="0 0 169 38" fill="none" xmlns="http://www.w3.org/2000/svg">
<path id="Vector 100" d="M5.06468 32.1354C13.2407 27.1973 23.6916 21.9236 32.0579 18.8728C34.0464 18.1477 34.7318 20.3242 34.6793 21.5522C34.5383 24.852 33.458 26.9592 33.6795 30.1452C33.7398 31.0119 34.028 32.2939 34.3788 32.5437C35.3471 33.2331 37.9744 31.4883 39.0638 31.0016C44.6663 28.4984 50.9448 25.7434 55.6322 24.2352C57.1946 23.7325 78.1204 15.8242 78.7757 18.4853C79.5093 21.4644 78.3333 25.1275 78.5509 28.2553C78.566 28.4729 78.4883 30.3736 78.944 30.3204C79.7045 30.2314 80.7528 29.5109 81.3938 29.2268C85.8804 27.2384 90.2427 24.8928 94.8707 23.2729C101.688 20.5957 108.179 18.1312 114.597 14.7679C115.416 14.3385 114.812 22.5575 114.686 23.2538C114.341 25.167 113.146 29.3705 112.981 31.3068C112.958 31.5776 123.878 24.9606 124.919 24.2878C137.854 15.9264 149.458 11.219 163.545 5.7309" stroke="#FF4655" stroke-width="10" stroke-linecap="round"/>
</svg>
