<svg width="111" height="123" viewBox="0 0 111 123" fill="none" xmlns="http://www.w3.org/2000/svg">
<path id="Vector 96" d="M6 64.2417C32.0368 57.0922 50.5032 51.3782 76.3486 43.4995C85.4572 40.7229 92 38.4995 97.5 36.4995C97.9094 36.3506 106.02 32.9995 105.5 33.4995C85.9425 52.3147 59.1823 81.2449 37.129 103.785C36.0994 104.838 25.2007 118.166 24.0217 117.998C23.9303 117.985 26.4996 112.426 26.5817 112.221C29.7653 104.274 32.1637 95.8769 34.7738 87.7325C42.1087 64.8453 46.9502 42.7989 54.5 19.9995C55.9079 15.7479 58.7356 1.51147 59.7085 5.88285C61.5014 13.9392 63.565 22.8502 65 30.9995C67.0396 42.5823 69.551 54.3183 71.678 65.8812C73.219 74.2584 75.5338 81.9995 76.3486 90.1353C76.8175 94.8172 77.3104 99.3416 78 104C78.1263 104.853 78.9611 112.58 78.6014 112.323C55.4797 95.8323 32.4937 80.0575 21 73.4995" stroke="#FF4655" stroke-width="10" stroke-linecap="round"/>
</svg>
