<svg width="786" height="156" viewBox="0 0 786 156" fill="none" xmlns="http://www.w3.org/2000/svg">
<path id="Vector 94" d="M477.452 131.074C405.224 135 317.418 135 281.54 135C220.641 135 146.525 129.523 82.3219 117.987C48.3321 111.88 11.9823 100.537 6.78927 86.1412C0.494406 68.6915 33.4699 52.2898 48.3322 46.8793C63.9108 41.2082 86.0986 34.2283 112.535 28.1209C138.972 22.0135 180.987 14.5973 228.667 11.1087C262.618 8.62461 328.652 5 379.732 5C425.428 5.00134 482.593 6.35742 557.706 11.1087C592.168 13.2886 629.934 18.0873 656.371 21.5772C684.223 25.2541 713.964 32.4833 728.599 37.282C756.652 46.4806 781 59.7453 781 73.9264C781 89.9309 758.812 106.645 744.178 113.625C723.821 123.334 690.034 131.168 663.924 135C637.815 138.831 611.051 142.205 578.478 145.034C545.904 147.864 518.524 148.962 482.646 148.962C436.126 148.962 369.346 153.548 310.809 148.962" stroke="#FF4655" stroke-width="10" stroke-linecap="round"/>
</svg>
